<svg width="49" height="49" viewBox="0 0 49 49" fill="none" xmlns="http://www.w3.org/2000/svg">
<rect x="0.5" y="0.5" width="48" height="48" rx="24" fill="white"/>
<rect x="0.5" y="0.5" width="48" height="48" rx="24" stroke="#F3F4F6"/>
<path d="M24 39C20.1111 39 16.8056 37.5903 14.0833 34.7708C11.3611 31.9514 10 28.5278 10 24.5C10 20.4722 11.3611 17.0486 14.0833 14.2292C16.8056 11.4097 20.1111 10 24 10C24.363 10 24.7194 10.0134 25.0694 10.0403C25.4194 10.0671 25.763 10.1074 26.1 10.1611C25.037 10.9398 24.188 11.9535 23.5528 13.2021C22.9176 14.4507 22.6 15.8 22.6 17.25C22.6 19.6667 23.4167 21.7208 25.05 23.4125C26.6833 25.1042 28.6667 25.95 31 25.95C32.4259 25.95 33.7352 25.6211 34.9278 24.9632C36.1204 24.3053 37.0926 23.4259 37.8444 22.325C37.8963 22.6741 37.9352 23.0299 37.9611 23.3924C37.987 23.7549 38 24.1241 38 24.5C38 28.5278 36.6389 31.9514 33.9167 34.7708C31.1944 37.5903 27.8889 39 24 39ZM24 35.7778C26.2815 35.7778 28.3296 35.1266 30.1444 33.8243C31.9593 32.522 33.2815 30.8236 34.1111 28.7292C33.5926 28.8634 33.0741 28.9708 32.5556 29.0514C32.037 29.1319 31.5185 29.1722 31 29.1722C27.8111 29.1722 25.0954 28.0109 22.8528 25.6882C20.6102 23.3655 19.4889 20.5528 19.4889 17.25C19.4889 16.713 19.5278 16.1759 19.6056 15.6389C19.6833 15.1019 19.787 14.5648 19.9167 14.0278C17.8944 14.887 16.2546 16.2565 14.9972 18.1361C13.7398 20.0157 13.1111 22.137 13.1111 24.5C13.1111 27.6148 14.1741 30.2731 16.3 32.475C18.4259 34.6769 20.9926 35.7778 24 35.7778Z" fill="#1E62D7"/>
</svg>
