<svg width="20" height="20" viewBox="0 0 20 20" fill="none" xmlns="http://www.w3.org/2000/svg">
<path d="M1.9802 13.871C1.9802 13.3365 1.53691 12.9032 0.990099 12.9032C0.443287 12.9032 0 13.3365 0 13.871H1.9802ZM20 13.871C20 13.3365 19.5567 12.9032 19.0099 12.9032C18.4631 12.9032 18.0198 13.3365 18.0198 13.871H20ZM9.21927 14.5661C8.88304 14.9875 8.95987 15.5956 9.39102 15.9244C9.82218 16.253 10.4444 16.1779 10.7807 15.7565L9.21927 14.5661ZM15.9292 9.3049C16.2655 8.88348 16.1886 8.27535 15.7575 7.94658C15.3263 7.61794 14.7042 7.69303 14.3678 8.11445L15.9292 9.3049ZM9.21927 15.7565C9.55564 16.1779 10.1778 16.253 10.609 15.9244C11.0401 15.5956 11.117 14.9875 10.7807 14.5661L9.21927 15.7565ZM5.63219 8.11445C5.29587 7.69303 4.6737 7.61794 4.24255 7.94658C3.81138 8.27535 3.73448 8.88348 4.07079 9.3049L5.63219 8.11445ZM9.0099 15.1613C9.0099 15.6957 9.4532 16.129 10 16.129C10.5468 16.129 10.9901 15.6957 10.9901 15.1613H9.0099ZM10.9901 0.967742C10.9901 0.433277 10.5468 0 10 0C9.4532 0 9.0099 0.433277 9.0099 0.967742H10.9901ZM0 13.871V15.1613H1.9802V13.871H0ZM0 15.1613C0 17.8105 2.14861 20 4.85149 20V18.0645C3.2892 18.0645 1.9802 16.788 1.9802 15.1613H0ZM4.85149 20H15.1485V18.0645H4.85149V20ZM15.1485 20C17.8514 20 20 17.8105 20 15.1613H18.0198C18.0198 16.788 16.7108 18.0645 15.1485 18.0645V20ZM20 15.1613V13.871H18.0198V15.1613H20ZM10.7807 15.7565L15.9292 9.3049L14.3678 8.11445L9.21927 14.5661L10.7807 15.7565ZM10.7807 14.5661L5.63219 8.11445L4.07079 9.3049L9.21927 15.7565L10.7807 14.5661ZM10.9901 15.1613V0.967742H9.0099V15.1613H10.9901Z" fill="white"/>
</svg>
